<svg width="24" height="24" viewBox="0 0 24 24" fill="none" xmlns="http://www.w3.org/2000/svg">
<g clip-path="url(#clip0_198_2718)">
<path fill-rule="evenodd" clip-rule="evenodd" d="M1.50012 17.25C1.50012 17.4489 1.57914 17.6396 1.71979 17.7803C1.86044 17.921 2.05121 18 2.25012 18H19.9396L15.2191 22.719C15.0783 22.8598 14.9992 23.0508 14.9992 23.25C14.9992 23.4491 15.0783 23.6401 15.2191 23.781C15.3599 23.9218 15.551 24.0009 15.7501 24.0009C15.9493 24.0009 16.1403 23.9218 16.2811 23.781L22.2811 17.781C22.351 17.7113 22.4064 17.6285 22.4442 17.5374C22.482 17.4463 22.5015 17.3486 22.5015 17.25C22.5015 17.1513 22.482 17.0536 22.4442 16.9625C22.4064 16.8714 22.351 16.7886 22.2811 16.719L16.2811 10.719C16.1403 10.5781 15.9493 10.499 15.7501 10.499C15.551 10.499 15.3599 10.5781 15.2191 10.719C15.0783 10.8598 14.9992 11.0508 14.9992 11.25C14.9992 11.4491 15.0783 11.6401 15.2191 11.781L19.9396 16.5H2.25012C2.05121 16.5 1.86044 16.579 1.71979 16.7196C1.57914 16.8603 1.50012 17.0511 1.50012 17.25ZM22.5001 6.74997C22.5001 6.94888 22.4211 7.13965 22.2804 7.2803C22.1398 7.42095 21.949 7.49997 21.7501 7.49997H4.06062L8.78112 12.219C8.85085 12.2887 8.90617 12.3715 8.9439 12.4626C8.98164 12.5537 9.00107 12.6514 9.00107 12.75C9.00107 12.8486 8.98164 12.9462 8.9439 13.0373C8.90617 13.1285 8.85085 13.2112 8.78112 13.281C8.71139 13.3507 8.6286 13.406 8.53749 13.4438C8.44639 13.4815 8.34873 13.5009 8.25012 13.5009C8.1515 13.5009 8.05385 13.4815 7.96274 13.4438C7.87163 13.406 7.78885 13.3507 7.71912 13.281L1.71912 7.28097C1.64928 7.2113 1.59386 7.12854 1.55605 7.03742C1.51824 6.9463 1.49878 6.84862 1.49878 6.74997C1.49878 6.65132 1.51824 6.55364 1.55605 6.46252C1.59386 6.3714 1.64928 6.28864 1.71912 6.21897L7.71912 0.218971C7.85995 0.0781409 8.05096 -0.000976562 8.25012 -0.000976562C8.44928 -0.000976563 8.64029 0.0781409 8.78112 0.218971C8.92195 0.359801 9.00107 0.550807 9.00107 0.749971C9.00107 0.949135 8.92195 1.14014 8.78112 1.28097L4.06062 5.99997H21.7501C21.949 5.99997 22.1398 6.07899 22.2804 6.21964C22.4211 6.36029 22.5001 6.55106 22.5001 6.74997Z" fill="#3E9850"/>
</g>
<defs>
<clipPath id="clip0_198_2718">
<rect width="24" height="24" fill="white"/>
</clipPath>
</defs>
</svg>
