<svg width="24" height="24" viewBox="0 0 24 24" fill="none" xmlns="http://www.w3.org/2000/svg">
<path d="M11.9032 21.5503C13.4962 21.5503 14.4062 20.8023 14.6218 19.8333H9.18518C9.40085 20.8023 10.3102 21.5503 11.9032 21.5503Z" fill="#D0CFCE"/>
<path d="M15.0677 3.55177C15.0677 3.55177 10.991 2.39944 9.00104 3.97477C7.01104 5.5501 6.86737 9.17477 6.86737 9.17477C7.06237 9.91244 8.27604 12.0058 8.27604 12.0058C8.45604 12.3094 9.02704 14.4994 9.35904 15.7924H14.6657C14.9544 14.8441 16.1157 11.4091 16.2674 11.0558C16.462 10.6014 16.794 9.7171 16.9617 9.38344C17.365 8.58044 17.3504 7.87244 17.141 7.0411C16.6884 5.2461 16.3164 4.8001 15.0674 3.5511L15.0677 3.55177Z" fill="#FCEA2B"/>
<path d="M11.9033 2.39986C9.05929 2.39986 6.4033 4.65053 6.4033 7.4932C6.4033 7.85286 6.3153 8.9902 6.80896 8.9902C6.80896 8.9902 7.60663 6.38186 9.59629 4.80686C11.586 3.23186 14.7696 3.5652 14.7696 3.5652C14.5483 2.88353 12.9196 2.39886 11.9043 2.39886L11.9033 2.39986Z" fill="white"/>
<path d="M12.0002 15.7396V11.7596M13.9902 11.7596H10.0102M17.5169 7.91626C17.5169 9.2446 16.9219 9.8856 16.2655 11.4163C16.0979 11.8069 14.8619 15.8763 14.8619 15.8763H9.13852C9.13852 15.8763 8.14485 11.9863 7.95652 11.6696C7.16652 10.3369 6.48352 9.36626 6.48352 7.91626C6.48352 4.86926 8.95352 2.3996 12.0002 2.3996C15.0469 2.3996 17.5169 4.8696 17.5169 7.91626Z" stroke="black" stroke-width="0.920298" stroke-linecap="round" stroke-linejoin="round"/>
<path d="M14.72 19.5977C14.72 20.6777 13.503 21.5534 12.0017 21.5534C10.5003 21.5534 9.28333 20.6777 9.28333 19.5977H14.72Z" stroke="black" stroke-width="0.780412" stroke-linecap="round" stroke-linejoin="round"/>
<path d="M9.3302 18.3265L14.6702 17.1699" stroke="black" stroke-width="0.904192" stroke-linecap="round" stroke-linejoin="round"/>
<path d="M12.7334 18.6903L14.6601 18.2969M9.34009 17.2003L11.2668 16.8069" stroke="black" stroke-width="0.920298" stroke-linecap="round" stroke-linejoin="round"/>
</svg>
