<svg width="25" height="18" viewBox="0 0 25 18" fill="none" xmlns="http://www.w3.org/2000/svg">
<path d="M0.388916 3C0.388916 2.20435 0.704987 1.44129 1.2676 0.87868C1.8302 0.31607 2.59327 0 3.38892 0H21.3889C22.1846 0 22.9476 0.31607 23.5102 0.87868C24.0728 1.44129 24.3889 2.20435 24.3889 3V4.5H0.388916V3ZM0.388916 7.5V15C0.388916 15.7956 0.704987 16.5587 1.2676 17.1213C1.8302 17.6839 2.59327 18 3.38892 18H21.3889C22.1846 18 22.9476 17.6839 23.5102 17.1213C24.0728 16.5587 24.3889 15.7956 24.3889 15V7.5H0.388916ZM4.88892 10.5H6.38892C6.78674 10.5 7.16827 10.658 7.44958 10.9393C7.73088 11.2206 7.88892 11.6022 7.88892 12V13.5C7.88892 13.8978 7.73088 14.2794 7.44958 14.5607C7.16827 14.842 6.78674 15 6.38892 15H4.88892C4.49109 15 4.10956 14.842 3.82826 14.5607C3.54695 14.2794 3.38892 13.8978 3.38892 13.5V12C3.38892 11.6022 3.54695 11.2206 3.82826 10.9393C4.10956 10.658 4.49109 10.5 4.88892 10.5Z" fill="#979797"/>
</svg>
