<svg width="24" height="24" viewBox="0 0 24 24" fill="none" xmlns="http://www.w3.org/2000/svg">
<g clip-path="url(#clip0_238_462)">
<path d="M12.7095 0.505471C12.6588 0.357575 12.5632 0.229213 12.436 0.138332C12.3088 0.0474519 12.1563 -0.00140381 12 -0.00140381C11.8437 -0.00140381 11.6912 0.0474519 11.564 0.138332C11.4368 0.229213 11.3412 0.357575 11.2905 0.505471L10.431 2.99997H3C2.60218 2.99997 2.22064 3.15801 1.93934 3.43931C1.65804 3.72062 1.5 4.10215 1.5 4.49997V15C1.5 15.3978 1.65804 15.7793 1.93934 16.0606C2.22064 16.3419 2.60218 16.5 3 16.5H5.775L3.7905 22.2555C3.72565 22.4436 3.73822 22.6499 3.82542 22.8288C3.91262 23.0077 4.06733 23.1446 4.2555 23.2095C4.44367 23.2743 4.64989 23.2618 4.8288 23.1745C5.00771 23.0873 5.14465 22.9326 5.2095 22.7445L7.362 16.5H11.25V20.25C11.25 20.4489 11.329 20.6396 11.4697 20.7803C11.6103 20.921 11.8011 21 12 21C12.1989 21 12.3897 20.921 12.5303 20.7803C12.671 20.6396 12.75 20.4489 12.75 20.25V16.5H16.638L18.7905 22.7445C18.8553 22.9326 18.9923 23.0873 19.1712 23.1745C19.3501 23.2618 19.5563 23.2743 19.7445 23.2095C19.9327 23.1446 20.0874 23.0077 20.1746 22.8288C20.2618 22.6499 20.2743 22.4436 20.2095 22.2555L18.225 16.5H21C21.3978 16.5 21.7794 16.3419 22.0607 16.0606C22.342 15.7793 22.5 15.3978 22.5 15V4.49997C22.5 4.10215 22.342 3.72062 22.0607 3.43931C21.7794 3.15801 21.3978 2.99997 21 2.99997H13.569L12.7095 0.505471Z" fill="#6B7CFE"/>
</g>
<defs>
<clipPath id="clip0_238_462">
<rect width="24" height="24" fill="white"/>
</clipPath>
</defs>
</svg>
