<svg width="24" height="24" viewBox="0 0 24 24" fill="none" xmlns="http://www.w3.org/2000/svg">
<g clip-path="url(#clip0_238_422)">
<path d="M21 1.5C21.3978 1.5 21.7794 1.65804 22.0607 1.93934C22.342 2.22064 22.5 2.60218 22.5 3V21C22.5 21.3978 22.342 21.7794 22.0607 22.0607C21.7794 22.342 21.3978 22.5 21 22.5H3C2.60218 22.5 2.22064 22.342 1.93934 22.0607C1.65804 21.7794 1.5 21.3978 1.5 21V3C1.5 2.60218 1.65804 2.22064 1.93934 1.93934C2.22064 1.65804 2.60218 1.5 3 1.5H21ZM3 0C2.20435 0 1.44129 0.316071 0.87868 0.87868C0.316071 1.44129 0 2.20435 0 3L0 21C0 21.7956 0.316071 22.5587 0.87868 23.1213C1.44129 23.6839 2.20435 24 3 24H21C21.7956 24 22.5587 23.6839 23.1213 23.1213C23.6839 22.5587 24 21.7956 24 21V3C24 2.20435 23.6839 1.44129 23.1213 0.87868C22.5587 0.316071 21.7956 0 21 0L3 0Z" fill="#FF2E00"/>
<path d="M8.5 18.25C8.5 18.8467 8.26295 19.419 7.84099 19.841C7.41903 20.2629 6.84674 20.5 6.25 20.5C5.65326 20.5 5.08097 20.2629 4.65901 19.841C4.23705 19.419 4 18.8467 4 18.25C4 17.6533 4.23705 17.081 4.65901 16.659C5.08097 16.2371 5.65326 16 6.25 16C6.84674 16 7.41903 16.2371 7.84099 16.659C8.26295 17.081 8.5 17.6533 8.5 18.25ZM4 5.5C4 5.10218 4.15804 4.72064 4.43934 4.43934C4.72064 4.15804 5.10218 4 5.5 4C13.7845 4 20.5 10.7155 20.5 19C20.5 19.3978 20.342 19.7794 20.0607 20.0607C19.7794 20.342 19.3978 20.5 19 20.5C18.6022 20.5 18.2206 20.342 17.9393 20.0607C17.658 19.7794 17.5 19.3978 17.5 19C17.5 15.8174 16.2357 12.7652 13.9853 10.5147C11.7348 8.26428 8.6826 7 5.5 7C5.10218 7 4.72064 6.84196 4.43934 6.56066C4.15804 6.27936 4 5.89782 4 5.5ZM4 11.5C4 11.1022 4.15804 10.7206 4.43934 10.4393C4.72064 10.158 5.10218 10 5.5 10C7.88695 10 10.1761 10.9482 11.864 12.636C13.5518 14.3239 14.5 16.6131 14.5 19C14.5 19.3978 14.342 19.7794 14.0607 20.0607C13.7794 20.342 13.3978 20.5 13 20.5C12.6022 20.5 12.2206 20.342 11.9393 20.0607C11.658 19.7794 11.5 19.3978 11.5 19C11.5 17.4087 10.8679 15.8826 9.74264 14.7574C8.61742 13.6321 7.0913 13 5.5 13C5.10218 13 4.72064 12.842 4.43934 12.5607C4.15804 12.2794 4 11.8978 4 11.5Z" fill="#FF2E00"/>
</g>
<defs>
<clipPath id="clip0_238_422">
<rect width="24" height="24" fill="white"/>
</clipPath>
</defs>
</svg>
