<svg width="26" height="20" viewBox="0 0 26 20" fill="none" xmlns="http://www.w3.org/2000/svg">
<g clip-path="url(#clip0_125_933)">
<path d="M25.4251 3.39663C25.276 2.83676 24.9851 2.32634 24.5814 1.9162C24.1777 1.50607 23.6753 1.21052 23.1243 1.059C21.1067 0.5 12.9868 0.5 12.9868 0.5C12.9868 0.5 4.86655 0.516921 2.84902 1.07592C2.29792 1.22745 1.79551 1.52301 1.39182 1.93317C0.988134 2.34332 0.697252 2.85376 0.548144 3.41365C-0.0621118 7.05551 -0.298841 12.6049 0.564901 16.101C0.714024 16.6609 1.00491 17.1713 1.4086 17.5815C1.81229 17.9916 2.31469 18.2871 2.86578 18.4387C4.88331 18.9977 13.0034 18.9977 13.0034 18.9977C13.0034 18.9977 21.1234 18.9977 23.1408 18.4387C23.6919 18.2872 24.1943 17.9916 24.598 17.5815C25.0018 17.1713 25.2927 16.6609 25.4418 16.101C26.0855 12.454 26.2838 6.90807 25.4251 3.39663Z" fill="#FF0000"/>
<path d="M10.4022 13.7126L17.1383 9.7488L10.4022 5.78503V13.7126Z" fill="white"/>
</g>
<defs>
<clipPath id="clip0_125_933">
<rect width="26" height="18.5714" fill="white" transform="translate(0 0.5)"/>
</clipPath>
</defs>
</svg>
